<svg version="1" xmlns="http://www.w3.org/2000/svg" width="682.667" height="682.667" viewBox="0 0 512.000000 512.000000"><path d="M220 .7c-4.9.8-15.9 5.5-20.2 8.5-6 4.3-13.1 12.1-16.2 17.8-4.3 7.8-6.8 19.3-6.1 27.7.3 3.9.8 7.8 1.1 8.7.4 1-.8 2.1-3.8 3.7-5.2 2.6-19.3 11.8-22.8 14.8-20.9 18.1-30.5 36-29.5 55.1 1 18.6 12.6 32.1 46 53.3 6.6 4.2 14.3 9.8 17.1 12.4 16.2 15.4 29.2 36.4 37.7 60.8 3 8.8 7.4 25.2 8.2 31 .1 1.1.6 4.2 1 7 .3 2.7.9 6.1 1.2 7.5.9 4.5 1.1 31.5.3 36.1-.4 2.4-1 6.4-1.4 8.9-.7 6.1-3.2 18.2-5.1 25.5-.9 3.3-1.8 6.8-2 7.8-1.9 8.8-16 50.4-20.6 60.4-1 2.4-1.9 4.5-1.9 4.8 0 .8-10.3 25-13.7 32.5-1.4 3-4.8 10.1-7.4 15.7-2.7 5.5-4.9 10.4-4.9 10.7 0 .3 7.4.5 16.4.5l16.4-.2 6.7-17.1c7.3-18.4 9.6-23.9 12.4-30l1.8-4 23.2-.2c21.5-.3 23.2-.2 22.7 1.4-2.5 7.8-11.6 37.4-12.4 40.2-.6 1.9-1.5 4.9-2 6.7l-1 3.2 18-.2 17.9-.1 1.5-3.5c2.9-6.9 11.4-31.2 13.5-38.4 5.5-19.1 7.1-25.3 9.5-35.8 1.4-6.3 2.8-12.4 3-13.7.2-1.2.6-3.2.8-4.5.2-1.2.7-3.3 1-4.7.6-2.3.8-4.1 2.2-14.5.2-2.2.7-4.5.9-5.2.2-.7.7-4.5 1.1-8.5.3-4 .8-7.6 1-7.9.8-1.3 1.8-29.3 1.8-47.9-.1-19-.9-41.8-1.9-51.5-.2-2.2-.9-9.3-1.5-15.8-.6-6.4-1.3-12.7-1.5-14-.2-1.2-.6-4.5-1-7.2-.9-7-1.3-10.1-4-25.7-1.3-7.5-2.1-15.1-1.8-17 1.2-7.6 5.4-12.3 17.4-19.2 39.4-22.9 57.8-53.7 48.1-80.6-3.8-10.7-14.8-23.9-26.3-31.8C344.4 53 322.4 46.4 292 43.4c-5.3-.5-38.1-.5-42.5 0-1.6.2-6.8.7-11.5 1.1-4.6.4-9.5 1.1-10.7 1.6-5.4 2-6.3 9.2-1.6 12.9 2.5 1.9 5.9 2 15.2.5 1.3-.2 7.5-.7 13.8-1.1l11.4-.6-2 5.2c-2.8 7.5-6.3 12.4-12.1 16.9-15.9 12.6-40.5 8.8-51.9-7.9-13.7-20.1-4.6-46.5 18.6-54.1 3.1-1.1 7.1-1.9 9-1.9 2.9 0 3.3-.3 3.4-2.8 0-1.5.1-5.1.3-8l.2-5.2-4.6.1c-2.5.1-5.6.4-7 .6zm77.3 58.8c3.7.4 7.8.8 9 1.1 1.2.2 4.7.8 7.7 1.4 22.1 4.1 41.5 14.3 48.8 25.6 6.1 9.5 8.2 26.5 4.7 36.9-2.6 7.6-9.8 17.7-18 25.3-31.2 28.7-96.2 44.3-144 34.6-31.5-6.4-53.6-23.6-57-44.4-3.9-22.8 7.1-43.9 29.7-57.3l6.3-3.8 3 3.8c6.9 8.7 15.5 14.9 25.6 18.4 7.7 2.7 22.6 3.2 30.4 1 18.4-5.2 33.2-20.5 37.5-38.8l1.2-5.3 4.1.4c2.3.3 7.3.8 11 1.1z"/></svg>