<svg xmlns="http://www.w3.org/2000/svg" xmlns:xlink="http://www.w3.org/1999/xlink" viewBox="0 0 35.6214 68.1798" height="257.6875" width="134.6321"><defs><linearGradient id="a" x1="28.27" y1="145.32" x2="162.91" y2="145.32" gradientUnits="userSpaceOnUse"><stop offset="0" stop-color="#fff"/><stop offset=".1" stop-color="#fafafa"/><stop offset=".22" stop-color="#ebebeb"/><stop offset=".36" stop-color="#d2d2d2"/><stop offset=".5" stop-color="#afafaf"/><stop offset=".66" stop-color="#828282"/><stop offset=".81" stop-color="#4b4b4b"/><stop offset=".97" stop-color="#0c0c0c"/><stop offset="1"/></linearGradient><linearGradient gradientTransform="matrix(.26458 0 0 .26458 39.4435 77.6061)" id="c" x1="100.27" y1="45.3" x2="100.27" y2="45.3" xlink:href="#a"/><linearGradient gradientTransform="matrix(.26458 0 0 .26458 39.4435 77.6061)" id="d" x1="80.55" y1="23.65" x2="80.55" y2="63.65" xlink:href="#a"/><linearGradient gradientTransform="matrix(.26458 0 0 .26458 39.4435 77.6061)" id="e" x1="82.62" y1="247.6" x2="119.7" y2="247.6" xlink:href="#a"/><linearGradient gradientTransform="matrix(.26458 0 0 .26458 39.4435 77.6061)" y2="145.32" x2="162.91" y1="145.32" x1="28.27" gradientUnits="userSpaceOnUse" id="b" xlink:href="#a"/></defs><path d="M35.5807 14.054c-.2434-2.077-1.6034-3.8126-3.3576-5.1779C28.646 6.098 21.9255 5.0476 14.2473 6.0715a1.0001 1.0001 0 10.2646 1.9818 41.1136 41.1136 0 014.617-.3546 4.7096 4.7096 0 01-1.4737 2.7094A4.8895 4.8895 0 019.453 6.7515a4.7413 4.7413 0 011.5293-3.339 4.8763 4.8763 0 013.4978-1.2912L14.549.0046a6.9876 6.9876 0 00-4.998 1.8521A6.8315 6.8315 0 007.5692 8.638C2.4257 11.1965-.4397 15.0277.0551 18.737c.4207 3.1592 4.1063 5.3631 7.0829 7.1914 1.852 1.2144 7.1622 6.2177 7.8422 16.9333.5742 8.98-7.7681 25.318-7.7681 25.318l4.4159-.045 2.757-6.8342 6.2679-.0423-2.1325 6.9004 4.7625-.0476s4.7413-10.7421 4.8418-23.069a90.5484 90.5484 0 00-1.5187-17.7589l-.0714-.471c-.2038-1.3573.6244-2.2965 1.6034-2.8918l.045-.0291c4.6804-2.4633 7.8369-6.104 7.3977-9.8372zM18.7558 24.7247c-8.4666 1.1297-14.7267-1.815-15.33-6.3315-.373-2.8099.7065-5.752 4.9293-7.8978a6.9956 6.9956 0 005.7494 3.3258h.2301a6.985 6.985 0 004.7625-1.8521 6.8262 6.8262 0 002.159-4.2333c4.1778.1772 7.673 1.1244 9.734 2.7331 1.323 1.024 1.7701 2.3813 1.9474 3.9185.5477 4.601-5.6489 9.1995-14.1817 10.3373z" style="isolation:isolate" fill="#ff5100"/><path d="M82.5044 96.0211c-.2434-2.077-1.6033-3.8126-3.3575-5.1779-3.5772-2.7781-10.2976-3.8285-17.9758-2.8046a1.0001 1.0001 0 10.2646 1.9818 41.1136 41.1136 0 014.617-.3546 4.7096 4.7096 0 01-1.4738 2.7094 4.8895 4.8895 0 01-8.202-3.6566 4.7413 4.7413 0 011.5292-3.339 4.8763 4.8763 0 013.4978-1.2912l.0688-2.1167a6.9876 6.9876 0 00-4.998 1.8521 6.8315 6.8315 0 00-1.9817 6.7813c-5.1435 2.5585-8.009 6.3897-7.5142 10.0991.4207 3.1592 4.1064 5.3631 7.083 7.1914 1.852 1.2144 16.293 3.3523 16.621 17.915.225 10.0991-16.547 24.3257-16.547 24.3257l4.416-.0344 2.7569-6.8341 6.268-.0423-2.1326 6.9003 4.7625-.0476s4.7413-10.7421 4.8419-23.069a90.5484 90.5484 0 00-1.5187-17.7589l-.0715-.471c-.2037-1.3572.6244-2.2965 1.6034-2.8918l.045-.0291c4.6805-2.4633 7.837-6.104 7.3977-9.8372zm-16.8248 10.6707c-8.4667 1.1297-14.7267-1.815-15.33-6.3315-.373-2.8099.7065-5.752 4.9292-7.8978a6.9956 6.9956 0 005.7494 3.3258h.2302a6.985 6.985 0 004.7625-1.8521 6.8262 6.8262 0 002.159-4.2333c4.1778.1772 7.673 1.1244 9.734 2.7331 1.323 1.024 1.77 2.3813 1.9474 3.9185.5476 4.6011-5.6489 9.1996-14.1817 10.3373z" style="isolation:isolate;mix-blend-mode:multiply" opacity=".5" fill="url(#b)" transform="translate(-46.9238 -81.9671)"/><path d="M66.0209 89.6526a4.6381 4.6381 0 01-1.4579 2.6829 4.8895 4.8895 0 01-8.202-3.6486 4.7228 4.7228 0 011.5266-3.339 4.8763 4.8763 0 013.4925-1.2992v-.1481a5.1911 5.1911 0 00-.6112-.037 5.2917 5.2917 0 100 10.5832c2.9104 0 5.2732-1.9102 5.2732-4.8339" style="isolation:isolate;mix-blend-mode:multiply" opacity=".6" fill="url(#d)" transform="translate(-46.9238 -81.9671)"/><path d="M70.8628 138.6958a1.6907 1.6907 0 00-2.7014-2.0135l-6.858 6.5855 6.215-.045.0318.0132-2.1167 6.8791z" style="isolation:isolate;mix-blend-mode:multiply" opacity=".5" fill="url(#e)" transform="translate(-46.9238 -81.9671)"/><path d="M18.8061 24.8252c9.2419-.9234 16.3592-5.4107 15.8988-10.0224-.2275-2.2887-2.286-4.1778-5.4292-5.387a9.525 9.525 0 011.7118 1.032c1.323 1.0239 1.7674 2.3812 1.9474 3.9184.5291 4.6144-5.6568 9.2128-14.1897 10.3532" style="isolation:isolate" fill="#ff5100"/></svg>