<svg xmlns="http://www.w3.org/2000/svg" xmlns:xlink="http://www.w3.org/1999/xlink" viewBox="0 0 370.824 75.192" height="284.19" width="1401.54"  xmlns:v="https://vecta.io/nano"><defs><linearGradient id="A" gradientUnits="userSpaceOnUse"><stop offset="0" stop-color="#fff"/><stop offset=".1" stop-color="#fafafa"/><stop offset=".22" stop-color="#ebebeb"/><stop offset=".36" stop-color="#d2d2d2"/><stop offset=".5" stop-color="#afafaf"/><stop offset=".66" stop-color="#828282"/><stop offset=".81" stop-color="#4b4b4b"/><stop offset=".97" stop-color="#0c0c0c"/><stop offset="1"/></linearGradient><linearGradient  x1="65.973" y1="89.592" x2="65.973" y2="89.592" xlink:href="#A" /><linearGradient id="C" x1="60.756" y1="83.864" x2="60.756" y2="94.447" xlink:href="#A" /><linearGradient id="D" x1="61.303" y1="143.117" x2="71.114" y2="143.117" xlink:href="#A" /><linearGradient y2="116.055" x2="82.547" y1="116.055" x1="46.923" id="E" xlink:href="#A" /></defs><g transform="translate(-46.924 -81.803)"><path d="M82.504 96.02c-.243-2.077-1.603-3.813-3.358-5.178-3.577-2.778-10.298-3.83-17.976-2.805a1 1 0 1 0 .265 1.982 41.114 41.114 0 0 1 4.617-.355 4.71 4.71 0 0 1-1.474 2.709 4.889 4.889 0 0 1-8.202-3.657 4.741 4.741 0 0 1 1.529-3.339 4.876 4.876 0 0 1 3.498-1.291l.07-2.117a6.988 6.988 0 0 0-4.998 1.852 6.832 6.832 0 0 0-1.982 6.781c-5.144 2.56-8.01 6.4-7.514 10.1.42 3.16 4.106 5.363 7.083 7.19 1.852 1.214 7.162 6.218 7.842 16.933.574 8.98-7.768 25.318-7.768 25.318l4.416-.045 2.757-6.834 6.268-.042-2.133 6.9 4.763-.048s4.74-10.742 4.842-23.07a90.548 90.548 0 0 0-1.519-17.759l-.07-.47c-.204-1.357.624-2.297 1.603-2.892l.045-.03c4.68-2.463 7.837-6.104 7.398-9.837zm-16.825 10.67c-8.467 1.13-14.727-1.815-15.33-6.33-.373-2.8.706-5.752 4.93-7.898a6.996 6.996 0 0 0 5.749 3.326h.23a6.985 6.985 0 0 0 4.762-1.852 6.826 6.826 0 0 0 2.159-4.233c4.178.177 7.673 1.124 9.734 2.733 1.323 1.024 1.77 2.38 1.947 3.918.548 4.6-5.65 9.2-14.182 10.337z" fill="#ff5100"/><path d="M82.504 96.02c-.243-2.077-1.603-3.813-3.358-5.178-3.577-2.778-10.298-3.83-17.976-2.805a1 1 0 1 0 .265 1.982 41.114 41.114 0 0 1 4.617-.355 4.71 4.71 0 0 1-1.474 2.709 4.889 4.889 0 0 1-8.202-3.657 4.741 4.741 0 0 1 1.529-3.339 4.876 4.876 0 0 1 3.498-1.291l.07-2.117a6.988 6.988 0 0 0-4.998 1.852 6.832 6.832 0 0 0-1.982 6.781c-5.144 2.56-8.01 6.4-7.514 10.1.42 3.16 4.106 5.363 7.083 7.19 1.852 1.214 16.293 3.352 16.62 17.915.225 10.1-16.547 24.326-16.547 24.326l4.416-.034 2.757-6.834 6.268-.042-2.133 6.9 4.763-.048s4.74-10.742 4.842-23.07a90.548 90.548 0 0 0-1.519-17.759l-.07-.47c-.204-1.357.624-2.297 1.603-2.892l.045-.03c4.68-2.463 7.837-6.104 7.398-9.837zm-16.825 10.67c-8.467 1.13-14.727-1.815-15.33-6.33-.373-2.8.706-5.752 4.93-7.898a6.996 6.996 0 0 0 5.749 3.326h.23a6.985 6.985 0 0 0 4.762-1.852 6.826 6.826 0 0 0 2.159-4.233c4.178.177 7.673 1.124 9.734 2.733 1.323 1.024 1.77 2.38 1.947 3.918.548 4.6-5.65 9.2-14.182 10.337z" style="mix-blend-mode:multiply" opacity=".5" fill="url(#E)"/><path d="M66.02 89.653a4.638 4.638 0 0 1-1.458 2.683 4.889 4.889 0 0 1-8.202-3.649 4.723 4.723 0 0 1 1.527-3.339 4.876 4.876 0 0 1 3.492-1.299V83.9a5.191 5.191 0 0 0-.611-.037 5.292 5.292 0 1 0 0 10.583c2.9 0 5.273-1.9 5.273-4.834" style="mix-blend-mode:multiply" opacity=".6" fill="url(#C)"/><path d="M70.863 138.696a1.691 1.691 0 0 0-2.701-2.013l-6.858 6.585 6.215-.045.032.013-2.117 6.88z" style="mix-blend-mode:multiply" opacity=".5" fill="url(#D)"/><path d="M65.73 106.792c9.242-.923 16.36-5.41 15.9-10.022-.228-2.29-2.286-4.178-5.43-5.387a9.525 9.525 0 0 1 1.712 1.032c1.323 1.024 1.767 2.38 1.947 3.918.53 4.614-5.657 9.213-14.2 10.353" fill="#ff5100"/><path d="M187.1 127.794a3.245 3.245 0 1 0 3.207 3.245 3.226 3.226 0 0 0-3.207-3.245zm13.035-11.152a22.593 22.593 0 0 0-14.409-5.488c-10.282 0-17.465 8.083-17.465 19.657a19.411 19.411 0 1 0 38.823 0c0-5.223-2.533-10.39-6.95-14.17zm-12.462 24.244a10.018 10.018 0 0 1-9.948-10.081c0-4.87 2.104-10.08 8-10.08 5.387 0 11.9 4.492 11.9 10.08a10.024 10.024 0 0 1-9.955 10.081zm-84.148-17.68c-4.53-1.695-7.334-2.88-7.775-5.8a3.44 3.44 0 0 1 .775-2.961c2.772-3.27 13.27-4.486 18.063-4.486v-7.938c-14.63 0-22 7.044-22.96 8.2a10.011 10.011 0 0 0-2.262 8.191c1.046 6.86 7.075 9.117 11.927 10.925 5.62 2.098 8.1 3.402 8.2 7.113a5.173 5.173 0 0 1-1.525 4.133c-3.232 3.182-10.654 3.465-13.23 3.308l-.202 3.257.208-3.257-.4 6.52c.24 0 .863.044 1.752.044 3.623 0 11.68-.554 16.38-5.18 2.4-2.35 4.07-5.48 3.95-9.047-.265-8.487-7.775-11.108-12.884-13.023zm15.33 26.953h7.07l.454-28.648-4.4 1.777zm3.642-31.262a3.604 3.604 0 1 0-3.566-3.604 3.579 3.579 0 0 0 3.566 3.604zm6.155-17.01l2.035 48.305h7.82l-3.572-48.318zm15.934.145l-2.697 48.18 8.28.15 1.2-48.456zm6.823 19.235v6.3c4.977 0 7.737 2.344 7.737 8.367s-2.76 8.638-7.737 8.638l-.088 5.74c6.704 0 13.672-6.634 13.672-14.793s-6.91-14.245-13.615-14.245z" fill="#1d1d1b"/><path d="M144.866 102.63l-2.558 47.165 7.472.284-3.824-47.448zm43.914 15.134a12.5 12.5 0 1 0 12.342 12.494 12.418 12.418 0 0 0-12.342-12.494zm-1.14 23.078a10.024 10.024 0 0 1-9.948-10.081c0-4.876 2.098-10.08 8-10.08 5.387 0 11.9 4.498 11.9 10.08a10.03 10.03 0 0 1-9.955 10.081z" fill="#3c3c3b"/><path d="M252.187 122.082v20.853l-.093 2.957a17.523 17.523 0 0 1-.467 2.822 10.52 10.52 0 0 1-1.037 2.666 10.935 10.935 0 0 1-1.764 2.241 8.839 8.839 0 0 1-2.708 1.805 17.793 17.793 0 0 1-3.901 1.131 28.696 28.696 0 0 1-5.25.436h-5.063l-.415-3.652h5.582a25.397 25.397 0 0 0 4.046-.291 8.819 8.819 0 0 0 2.874-.954 7.501 7.501 0 0 0 1.867-1.484 5.53 5.53 0 0 0 1.037-2.075 14.11 14.11 0 0 0 .488-2.563q.125-1.276.125-3.112v-2.345a11.506 11.506 0 0 1-3.808 3.206 11.713 11.713 0 0 1-5.488 1.131 14.006 14.006 0 0 1-4.752-.788 11.298 11.298 0 0 1-3.662-2.075 13.062 13.062 0 0 1-2.552-3.029 12.896 12.896 0 0 1-1.525-3.559 14.525 14.525 0 0 1-.477-3.693 17.118 17.118 0 0 1 .799-5.374 13.56 13.56 0 0 1 2.397-4.409 10.665 10.665 0 0 1 4.15-3.04 14.971 14.971 0 0 1 5.924-1.1 12.221 12.221 0 0 1 5.187 1.037 11.329 11.329 0 0 1 3.953 3.112m-8.746 19.556a10.468 10.468 0 0 0 4.067-.726 6.349 6.349 0 0 0 2.739-2.013 8.86 8.86 0 0 0 1.463-2.853 11.64 11.64 0 0 0 .477-3.434v-1.96a12.574 12.574 0 0 0-.488-3.569 8.922 8.922 0 0 0-1.515-2.926 6.858 6.858 0 0 0-2.739-2.075 10.074 10.074 0 0 0-3.984-.726 8.953 8.953 0 0 0-3.434.633 7.262 7.262 0 0 0-2.542 1.65 9.97 9.97 0 0 0-1.691 2.397 11.495 11.495 0 0 0-1.037 2.78 13.684 13.684 0 0 0-.301 2.832 12.055 12.055 0 0 0 .332 2.78 10.81 10.81 0 0 0 1.037 2.687 9.493 9.493 0 0 0 1.722 2.282 7.636 7.636 0 0 0 2.531 1.587 8.891 8.891 0 0 0 3.434.54zm47.287-9.938a13.788 13.788 0 0 1-3.725 10.012q-3.714 3.828-10.28 3.828-6.318 0-10.053-3.87a15.189 15.189 0 0 1 0-19.961q3.745-3.828 10.28-3.828 6.536 0 10.095 3.84a13.819 13.819 0 0 1 3.683 9.98zm-23.063.073a11.412 11.412 0 0 0 2.365 7.563 8.466 8.466 0 0 0 6.91 2.843 8.196 8.196 0 0 0 6.775-2.832 13.985 13.985 0 0 0 0-15.282c-1.504-1.867-3.797-2.8-6.878-2.8a8.362 8.362 0 0 0-6.837 2.853 11.651 11.651 0 0 0-2.334 7.646zm90.716 13.767q-6.536 0-10.302-3.673-3.766-3.673-3.756-10.063a13.975 13.975 0 0 1 3.631-10.012 12.834 12.834 0 0 1 9.586-3.911 11.806 11.806 0 0 1 8.85 3.372 12.45 12.45 0 0 1 3.268 9.026v2.148H344.5a9.773 9.773 0 0 0 2.646 7.065 9.337 9.337 0 0 0 6.878 2.521 22.441 22.441 0 0 0 9.545-2.22l.716 3.268a21.652 21.652 0 0 1-10.427 2.48zm4.617-22.202a7.262 7.262 0 0 0-5.519-2.075 7.812 7.812 0 0 0-5.716 2.189 9.431 9.431 0 0 0-2.594 5.997h15.832a8.476 8.476 0 0 0-2.002-6.111zm26.465-5.135a16.465 16.465 0 0 1 2.241.135l-.166 3.735a13.964 13.964 0 0 0-2.189-.197 8.518 8.518 0 0 0-6.225 2.355 7.926 7.926 0 0 0-2.386 5.851v14.908h-4.586q0-24.443 0-26.55h3.797l.436 4.762a12.128 12.128 0 0 1 3.974-3.631 10.167 10.167 0 0 1 5.104-1.369zm32.806 13.497a13.788 13.788 0 0 1-3.725 10.012q-3.714 3.828-10.292 3.828-6.318 0-10.053-3.87a15.168 15.168 0 0 1 0-19.961q3.735-3.828 10.28-3.828 6.546 0 10.095 3.84a13.819 13.819 0 0 1 3.693 9.98zm-23.063.073a11.412 11.412 0 0 0 2.365 7.563 8.466 8.466 0 0 0 6.91 2.843 8.175 8.175 0 0 0 6.764-2.832 14.006 14.006 0 0 0 0-15.282c-1.504-1.867-3.797-2.8-6.878-2.8a8.383 8.383 0 0 0-6.847 2.853 11.651 11.651 0 0 0-2.314 7.646zm-99.628 13.435v-18.228q0-3.403 2.075-4.824a10.468 10.468 0 0 1 5.882-1.411 15.074 15.074 0 0 1 3.237.301 7.895 7.895 0 0 1 2.531.975 4.43 4.43 0 0 1 1.712 1.93 6.858 6.858 0 0 1 .602 3.029v18.228h4.887v-18.228c0-2.272.695-3.88 2.075-4.824a10.447 10.447 0 0 1 5.882-1.411 15.209 15.209 0 0 1 3.237.301 7.833 7.833 0 0 1 2.521.975 4.513 4.513 0 0 1 1.722 1.93 7.013 7.013 0 0 1 .591 3.029v18.228h4.886v-18.177a9.493 9.493 0 0 0-.705-3.725 7.874 7.874 0 0 0-1.899-2.78 10.489 10.489 0 0 0-2.874-1.836 15.562 15.562 0 0 0-3.538-1.037 24.515 24.515 0 0 0-7.916 0 15.676 15.676 0 0 0-3.496 1.037 9.576 9.576 0 0 0-2.832 1.826 1.349 1.349 0 0 0-.156.187l-.145-.166a10.188 10.188 0 0 0-2.874-1.836 15.272 15.272 0 0 0-3.527-1.037 24.515 24.515 0 0 0-7.916 0 15.562 15.562 0 0 0-3.496 1.037 9.576 9.576 0 0 0-2.739 1.784 7.926 7.926 0 0 0-1.878 2.77 9.617 9.617 0 0 0-.695 3.756v18.177z" fill="#1d1d1b"/><path d="M201.305 101.376a5.551 5.551 0 1 0 5.551 5.551 5.544 5.544 0 0 0-5.551-5.551zm-.5 10.25a4.486 4.486 0 0 1-4.48-4.473c0-2.167.95-4.48 3.604-4.48 2.42 0 5.35 1.997 5.35 4.48a4.48 4.48 0 0 1-4.473 4.473z" fill="#3c3c3b"/><path d="M203.53 109.724h-.743l-.762-1.726-.397-.838q-.27 0-.63 0l-.995-.012v2.577h-.63v-5.57h2.3c.157 0 .315 0 .466.057a2.142 2.142 0 0 1 .41.107 1.399 1.399 0 0 1 .315.176.863.863 0 0 1 .239.265 1.134 1.134 0 0 1 .145.365 1.802 1.802 0 0 1 .057.473 1.499 1.499 0 0 1-.277.901 1.418 1.418 0 0 1-.775.517l.075.14.176.3.157.3zm-3.53-4.996v1.9h1.374a1.556 1.556 0 0 0 .989-.233.926.926 0 0 0 .284-.75.838.838 0 0 0-.271-.674 1.443 1.443 0 0 0-.901-.221zM98.508 97.284l-.867-2.824h-4.325l-.857 2.824h-2.72l4.23-11.918h3.067l4.23 11.918zm-1.47-4.94L95.695 88a7.81 7.81 0 0 1-.212-.804q-.264 1.058-1.533 5.14zm12.7 1.652a3.056 3.056 0 0 1-1.153 2.527 5.065 5.065 0 0 1-3.225.931 7.593 7.593 0 0 1-3.363-.719v-2.337a12.553 12.553 0 0 0 2.041.751 5.89 5.89 0 0 0 1.523.222 2.115 2.115 0 0 0 1.269-.317 1.058 1.058 0 0 0 .444-.941 1.058 1.058 0 0 0-.201-.624 2.115 2.115 0 0 0-.571-.518 15.059 15.059 0 0 0-1.533-.804 7.223 7.223 0 0 1-1.639-.983 3.807 3.807 0 0 1-.867-1.058 3.173 3.173 0 0 1-.328-1.459 3.077 3.077 0 0 1 1.058-2.475 4.463 4.463 0 0 1 2.961-.899 7.477 7.477 0 0 1 1.766.212 13.092 13.092 0 0 1 1.755.624l-.814 1.956a11.463 11.463 0 0 0-1.576-.55 5.383 5.383 0 0 0-1.216-.148 1.629 1.629 0 0 0-1.058.328 1.058 1.058 0 0 0-.381.867 1.058 1.058 0 0 0 .159.582 1.629 1.629 0 0 0 .486.486 17.777 17.777 0 0 0 1.597.825 6.398 6.398 0 0 1 2.242 1.586 3.173 3.173 0 0 1 .624 1.935zm12.922-2.666a6.461 6.461 0 0 1-1.47 4.537 6.345 6.345 0 0 1-8.375 0 6.472 6.472 0 0 1-1.459-4.547 6.345 6.345 0 0 1 1.459-4.547 5.478 5.478 0 0 1 4.23-1.565 5.393 5.393 0 0 1 4.23 1.576 6.419 6.419 0 0 1 1.385 4.547zm-8.672 0a4.949 4.949 0 0 0 .761 3.003 2.633 2.633 0 0 0 2.252 1.005q3.014 0 3.014-4.008c0-2.665-.994-4.008-2.993-4.008a2.675 2.675 0 0 0-2.274 1.058 4.939 4.939 0 0 0-.783 2.95zm16.17-3.986a2.538 2.538 0 0 0-2.2 1.058 4.96 4.96 0 0 0-.783 2.972c0 2.644.994 3.976 2.982 3.976a9.264 9.264 0 0 0 3.024-.635v2.115a8.46 8.46 0 0 1-3.257.613 4.97 4.97 0 0 1-3.966-1.576 6.673 6.673 0 0 1-1.375-4.505 7.297 7.297 0 0 1 .677-3.247A4.812 4.812 0 0 1 127.185 86a5.732 5.732 0 0 1 2.961-.74 7.963 7.963 0 0 1 3.479.835l-.814 2.04a13.272 13.272 0 0 0-1.343-.55 3.913 3.913 0 0 0-1.322-.243zm5.552 9.94V85.42h2.517v11.865zm12.775 0l-.857-2.824h-4.336l-.857 2.824h-2.707l4.23-11.918h3.077l4.23 11.918zm-1.46-4.94L145.672 88l-.222-.804c-.17.698-.687 2.4-1.533 5.14zm10.713-5a2.538 2.538 0 0 0-2.2 1.058 4.886 4.886 0 0 0-.783 2.972c0 2.644.994 3.976 2.982 3.976a9.317 9.317 0 0 0 3.024-.635v2.115a8.46 8.46 0 0 1-3.268.613 4.96 4.96 0 0 1-3.955-1.576 6.62 6.62 0 0 1-1.375-4.505 7.297 7.297 0 0 1 .677-3.247A4.812 4.812 0 0 1 154.765 86a5.7 5.7 0 0 1 2.961-.74 7.921 7.921 0 0 1 3.469.835l-.814 2.04a13.102 13.102 0 0 0-1.332-.55 3.966 3.966 0 0 0-1.322-.243zm5.552 9.94V85.42h2.496v11.865zm16.243-5.954a6.461 6.461 0 0 1-1.459 4.537 6.345 6.345 0 0 1-8.375 0 6.43 6.43 0 0 1-1.47-4.547 6.345 6.345 0 0 1 1.502-4.547 6.345 6.345 0 0 1 8.386 0 6.419 6.419 0 0 1 1.417 4.558zm-8.66 0a5.023 5.023 0 0 0 .751 3.003 2.665 2.665 0 0 0 2.263 1.005q3.014 0 3.014-4.008c0-2.665-1.058-4.008-3.003-4.008a2.654 2.654 0 0 0-2.263 1.058 4.939 4.939 0 0 0-.73 2.95zm1.734-6.863v-.222a23.551 23.551 0 0 0 1.914-2.443h2.77v.17c-.275.286-.76.698-1.438 1.258l-1.597 1.237zm19.953 12.817h-3.173l-5.16-8.978h-.074q.16 2.38.16 3.395v5.584h-2.252V85.42h3.173l5.16 8.894h.053l-.116-3.278V85.42h2.263zm12.353-9.94a2.538 2.538 0 0 0-2.2 1.058 4.886 4.886 0 0 0-.783 2.972c0 2.644.994 3.976 2.982 3.976a9.264 9.264 0 0 0 3.024-.635v2.115a8.46 8.46 0 0 1-3.268.613 4.96 4.96 0 0 1-3.987-1.565 6.62 6.62 0 0 1-1.375-4.505 7.297 7.297 0 0 1 .677-3.247 4.812 4.812 0 0 1 1.935-2.115 5.7 5.7 0 0 1 2.961-.74 7.921 7.921 0 0 1 3.469.835l-.804 2.04a14.35 14.35 0 0 0-1.343-.55 3.966 3.966 0 0 0-1.29-.254zm15.217-1.924v7.7a4.42 4.42 0 0 1-.592 2.305 3.86 3.86 0 0 1-1.703 1.523 6.123 6.123 0 0 1-2.633.529 5.034 5.034 0 0 1-3.553-1.184 4.156 4.156 0 0 1-1.269-3.173v-7.7h2.517v7.265a3.024 3.024 0 0 0 .55 2.009 2.855 2.855 0 0 0 3.617 0 3.088 3.088 0 0 0 .55-2.03V85.42zm2.9 11.864V85.42h2.517v9.814h4.812v2.115zm13.968 0h-2.485v-9.77h-3.225V85.4h8.968v2.115h-3.173zm14.7-11.864v7.7a4.42 4.42 0 0 1-.582 2.305 3.913 3.913 0 0 1-1.703 1.523 6.123 6.123 0 0 1-2.633.529 5.023 5.023 0 0 1-3.553-1.184 4.156 4.156 0 0 1-1.269-3.173v-7.7h2.506v7.265a3.077 3.077 0 0 0 .55 2.009 2.295 2.295 0 0 0 1.829.645 2.221 2.221 0 0 0 1.787-.645 3.088 3.088 0 0 0 .56-2.03V85.42zm5.425 7.317v4.547h-2.527V85.42h3.458a5.89 5.89 0 0 1 3.585.878 3.173 3.173 0 0 1 1.163 2.675 3.088 3.088 0 0 1-.582 1.861 3.765 3.765 0 0 1-1.629 1.28q2.686 4.02 3.5 5.17h-2.8l-2.834-4.547zm0-2.052h.814a3.046 3.046 0 0 0 1.766-.402 1.406 1.406 0 0 0 .56-1.248 1.29 1.29 0 0 0-.571-1.195 3.511 3.511 0 0 0-1.808-.36h-.76zm15.737 6.6l-.867-2.824h-4.325l-.867 2.824h-2.686l4.23-11.918h3.077l4.23 11.918zm-1.47-4.94L270.056 88a7.77 7.77 0 0 1-.211-.804q-.275 1.058-1.533 5.14zm5.667 4.94V85.42h2.517v9.814h4.822v2.115z" fill="#1d1d1b"/></g></svg>